<svg xmlns="http://www.w3.org/2000/svg" viewBox="0 0 55 30"><title>3sat-Logo</title><path d="M34.9 12.9c-.7-.1-1.5-.5-2.1-1l-.4-.4 1.2-1.2.3.3c.5.5 1.3.8 2 .8s1.1-.2 1.2-.5c.2-.5-.1-1-1-1.3-2-.7-2.5-1-2.8-1.7-.5-1.1-.1-2.3 1.1-2.8 1.3-.6 3-.4 4.1.5l.6.4-.5.5c-.3.3-.5.5-.6.5 0 0-.2-.2-.5-.3-1-.7-2.2-.7-2.4 0-.2.5.2.8 1.3 1.2 1.9.6 2.6 1.2 2.8 2.4.1.7-.3 1.7-.9 2.1-1 .5-2.3.7-3.4.5m7.2 0c-.8-.1-1.5-.6-1.8-1.2-.2-.5-.2-1.4 0-1.9.5-1 1.8-1.6 4-1.9l.8-.1v-.3c0-.4-.3-.8-.6-1-.2-.1-.4-.2-.9-.2-.7 0-1 .1-1.6.6l-.4.3-1-1 .3-.3c.9-.8 2.3-1.1 3.5-1 1.3.2 2.1.8 2.5 1.8.2.4.2.6.2 3.3v2.9h-1.8v-.8l-.3.2c-.4.4-.9.6-1.5.7-.5 0-.9 0-1.4-.1m2-1.6c.7-.4 1.1-1 1.1-1.9 0-.4 0-.4-1-.2-1.3.2-1.9.6-2.1 1.2-.1.3 0 .8.4 1 .3.2 1.1.1 1.6-.1m6.6 1.6c-.8-.2-1.3-.5-1.7-1.2l-.2-.4V3.9l.9-.9.9-.9v2.8H53v1.4h-2.4v4.4l.2.2c.2.2.3.2.6.2s.5-.1.7-.2l.3-.2 1.2 1.2-.3.2c-.6.7-1.7 1-2.6.8M0 0v30h30V0zm19.6 4.7-3.8 3.8H11L7.2 4.7zM22 21.3c-.5 1-1.9 2.3-2.8 2.9-1.4.8-2.6 1.2-4.2 1.2h-1.3c-.1 0-.4-.1-.7-.1-2.2-.4-4.2-1.7-5.6-3.7l-.3-.4 1.5-1.5 1.5-1.5s.1.2.4.5c1 1.7 2.7 2.7 4.6 2.6 2.3-.2 3.8-1.8 3.7-4 0-.9-.4-1.6-1-2.2l-.4-.5 3-3 .3.3c.5.5 1.3 1.5 1.6 2 1 2.2 1 5.1-.3 7.4m-3-9.6-4 4s-.6-.6-1.4-1.3c-.7-.7-1.3-1.4-1.3-1.4 0-.1 7.9-8 8-8l1.4 1.4L23 7.7z" style="fill: rgb(255, 255, 255);"></path></svg>