<svg xmlns="http://www.w3.org/2000/svg" viewBox="0 0 143 68"><title>Das Erste-Logo</title><path d="M23.7 15.4a19.1 19.1 0 1 0 .5 0Zm8 7.6v18.7l-12.5 4.6V32.2l-6.1 2.1v-4.5zm92.2 3.4-3 .7v3.6h-2V33h2v5.8c0 2.7.8 3.6 3.4 3.6a10 10 0 0 0 2.4-.3v-2.4l-1.5.2c-1 0-1.3-.4-1.3-1.9v-5h2.8v-2.3h-2.8zm-66.8.1H52v15.7h4.4c5.1 0 8.6-2.8 8.6-8.2s-3.1-7.6-7.9-7.6Zm35.4.1v15.6h8.5v-2.6h-5.5v-4.2h5.2v-2.5h-5.2v-3.8h5.5v-2.5ZM55.9 29h1c3.6 0 4.9 2 4.9 5.3s-2.2 5.4-5.1 5.4H55V29.1Zm15.3 1.4a13.7 13.7 0 0 0-4.2.7l.3 2.5a8.2 8.2 0 0 1 3.4-.9c1.6 0 2.2.6 2.2 1.8v.7c-3.9 0-6.6 1.4-6.6 4.2s1.2 3 3.3 3a4 4 0 0 0 3.7-2.2 13.4 13.4 0 0 0-.1 2H76c-.1-1-.1-2.1-.1-3v-4.8c0-2.5-1-4-4.7-4m11.7 0c-3.2 0-4.9 1.7-4.9 3.7 0 3.9 4.7 2.8 4.7 4.8s-.8 1.2-1.9 1.2a9.5 9.5 0 0 1-2.5-.3v2.4l2.5.2c3.1 0 5.1-1.5 5.1-3.8s-4.7-2.9-4.7-4.8.5-1.1 1.7-1.1a7.1 7.1 0 0 1 2.1.3v-2.4zm26.8 0a3.4 3.4 0 0 0-3.6 2.6h-.1a9.8 9.8 0 0 0 .2-2.3h-2.8v11.5h3v-4.7c0-3.2 1-4.6 3.2-4.2v-2.9Zm5.7 0c-3.2 0-4.9 1.7-4.9 3.7 0 3.9 4.7 2.8 4.7 4.8s-.8 1.2-1.9 1.2a10 10 0 0 1-2.5-.3v2.4l2.4.2c3.1 0 5.1-1.5 5.1-3.8s-4.7-2.9-4.7-4.8.5-1.1 1.7-1.1a7.1 7.1 0 0 1 2.1.3v-2.4l-2.1-.2Zm17.8 0c-3.4 0-5.4 2.6-5.4 6.1s2.1 5.9 5.7 5.9a13.5 13.5 0 0 0 4.1-.7l-.3-2.3a7.5 7.5 0 0 1-3.3.7 2.9 2.9 0 0 1-3.2-3.2h7.1a6.2 6.2 0 0 0 .1-1.3c0-2.9-1.4-5.2-4.8-5.2m-.1 2.2c1.3 0 2 .9 2 2.3h-4.2a2.2 2.2 0 0 1 2.2-2.3m-60.2 4.5v.3a2.6 2.6 0 0 1-2.4 2.7c-.9 0-1.4-.4-1.4-1.2s.7-1.8 3.8-1.8" style="fill: rgb(255, 255, 255);"></path></svg>