<svg xmlns="http://www.w3.org/2000/svg" viewBox="0 0 120 68"><path d="M20.2 21.4c-8.8 0-15.6 6.1-15.6 15.8s5.6 14 14.1 14 15.5-6 15.5-15.5-4.7-14.3-14-14.3m-.9 20.8c-2.8 0-3.9-1.8-3.9-6.2s2.1-5.6 4.1-5.6 3.9 1.9 3.9 5.9-1.4 5.9-4.1 5.9M54.7 21.4a10.8 10.8 0 0 0-9.1 4.5 29 29 0 0 0 .3-3.8h-9.6v28.5h10.4V36.7c0-3.1 2.1-6.4 4.4-6.4s1.6.9 1.6 2.3v18h10.4V30.4c0-4.8-2.1-9-8.4-9M79.5 21.4c-9.2 0-14.2 6.5-14.2 15.3s5.4 14.5 15 14.5a30.5 30.5 0 0 0 11-2l-.9-7.7a22.1 22.1 0 0 1-8.4 1.7c-4.1 0-6-1.6-6.2-3.6H92a34 34 0 0 0 .3-4.4c0-7.9-4-13.8-12.8-13.8m2.7 11.5h-6.4c.1-2.4 1.5-4 3.5-4s3 1.2 2.9 4M105.6 16.8a9.8 9.8 0 1 0 0 19.6 9.8 9.8 0 1 0 0-19.6m0 17.8a8.1 8.1 0 1 1 8-8 8 8 0 0 1-8 8" style="fill: rgb(255, 255, 255);"></path><path d="m100.6 26.4 2.7-1v6l5.4-1.9v-8.1l-8.1 3z" style="fill: rgb(255, 255, 255);"></path></svg>