<svg xmlns="http://www.w3.org/2000/svg" viewBox="0 0 105 68"><title>Rundfunk Berlin-Brandenburg-Logo</title><path d="m82.6 19.4-7 32.9H7.5V19.4ZM29.7 32.3c-6.5.1-11.4 1-14.8 2.7v9.9h2.9v-8c3-1.1 7-1.6 11.9-1.7Zm5.8-5.7h-2.8v17.9a67 67 0 0 0 8.2.6c4.1 0 6.9-.5 8.5-1.5s.7-2.5.7-4.9a11.1 11.1 0 0 0-.7-4.6 21.6 21.6 0 0 0-9.4-1.8 34 34 0 0 0-4.5.3Zm0 8.9 4.6-.3a25.8 25.8 0 0 1 7 .9c.1 1 .2 1.9.2 2.8s-.1 1.6-.2 2.7a24.3 24.3 0 0 1-6.2.6l-5.4-.3Zm20.3-8.9H53v17.9a67 67 0 0 0 8.2.6c4 0 6.9-.5 8.5-1.5a13.5 13.5 0 0 0 .6-4.9 11.6 11.6 0 0 0-.6-4.6 21.6 21.6 0 0 0-9.4-1.8 34 34 0 0 0-4.5.3Zm0 8.9 4.6-.3a26.3 26.3 0 0 1 7 .9c.1 1 .2 1.9.2 2.8s-.1 1.6-.2 2.7a24.3 24.3 0 0 1-6.2.6l-5.4-.3Z" style="fill: rgb(255, 255, 255);"></path><path d="M92.5 15.7a7.5 7.5 0 1 0 7.5 7.4 7.5 7.5 0 0 0-7.5-7.4m0 13.6a6.2 6.2 0 1 1 6.1-6.2 6.1 6.1 0 0 1-6.1 6.2" style="fill: rgb(255, 255, 255); fill-rule: evenodd;"></path><path d="M94.9 25.4v-6.2l-6.2 2.3V23l2.1-.8v4.7z" style="fill: rgb(255, 255, 255); fill-rule: evenodd;"></path></svg>