<svg xmlns="http://www.w3.org/2000/svg" viewBox="0 0 130 68"><title>ARD alpha-Logo</title><path d="M117.3 10.3a7.1 7.1 0 1 0 7 7.1 7.1 7.1 0 0 0-7-7.1m0 1a6.1 6.1 0 1 1-6.1 6.1 6 6 0 0 1 6.1-6.1m-80.4 1.8a.5.5 0 0 0-.4.5v30a.5.5 0 0 0 .4.5h4.3a.5.5 0 0 0 .5-.5v-30a.5.5 0 0 0-.5-.5Zm32.4 0a.5.5 0 0 0-.5.5v30a.5.5 0 0 0 .5.5h4.3a.5.5 0 0 0 .5-.5v-9.3c0-3.5 2-6.5 4.7-6.5s2.5 1.2 2.5 3.4v12.4a.5.5 0 0 0 .4.5H86a.5.5 0 0 0 .4-.5V29.9c0-3.5-1.4-6.5-6-6.5a7.1 7.1 0 0 0-6.6 3.8h-.1a19.3 19.3 0 0 0 .4-4.2v-9.4a.5.5 0 0 0-.5-.5Zm50.8 0-7.1 2.6v1.8l2.3-.9V22l4.8-1.8zM16.8 22.7c-3.9 0-7.7 3.9-9.7 7.1a21.5 21.5 0 0 0-2.5 6.8c-.3 2.5.1 5.3 2.7 6.8s8 .3 10.9-1.9l.8-.7 1.9-1.8a.1.1 0 0 1 .1-.1l1.8-2h.1c2.1 3.8 4.9 7.4 9.1 7.1.5-.1.5-.5.5-1.1v-3.3c0-.4-.3-.6-.8-.7h-.9c-1.1-.6-1.7-1.6-2.6-3.1a24 24 0 0 1-1.7-3.2c1.2-1.4 5.8-7.4 5.8-7.4 1.4-1.8.6-1.9-.6-1.9h-3.8a1.2 1.2 0 0 0-1 .4 16 16 0 0 0-1.4 1.8l-1.8 2.2c-1.6-2.7-3.6-4.9-6.9-4.9Zm85.1.2c-3.9 0-7.7 3.9-9.7 7.1a21.5 21.5 0 0 0-2.5 6.8c-.3 2.6.1 5.3 2.7 6.8 5.3 3.1 11.2-1.8 13.6-4.4a.9.9 0 0 0 .1-.9l-2.3-2.9a.8.8 0 0 0-1.4 0c-1.4 1.4-2.2 2.5-4.5 3.5s-2.6.4-3-.2 1.6-5.4 1.9-5.9c1.9-3 3.8-4.4 5.1-4.5a1.7 1.7 0 0 1 1.2.6 11.5 11.5 0 0 1 1.5 2c1.1 1.8 2.2 4.1 3.4 6.3 2.1 3.8 4.8 7.2 9 6.9.6-.1.5-.5.5-1v-3.5c0-.4-.3-.6-.8-.6l-.9-.2c-1.1-.5-1.5-1.4-2.4-2.9s-1.8-3.5-2.8-5.3c-2.2-3.9-4.3-7.7-8.7-7.7m-44.1.3a6.6 6.6 0 0 0-6.4 3.8h-.1a21 21 0 0 0 .2-2.5V24a.5.5 0 0 0-.5-.5h-3.8a.5.5 0 0 0-.5.5v30.3a.5.5 0 0 0 .5.5h4.2a.5.5 0 0 0 .5-.5V44l2.6.2c7 0 10.7-4.5 10.7-11.5s-2.6-9.5-7.4-9.5m-1.6 4.3c2.4 0 3.5 2 3.5 5.7s-2.1 6.9-5.1 6.9a11.2 11.2 0 0 1-2.7-.3v-5.7c0-3.4 1.6-6.6 4.3-6.6m-39.4.6a1.8 1.8 0 0 1 1.2.6 11.5 11.5 0 0 1 1.5 2l.8 1.3c-1 1.2-1.9 2.3-2.8 3.2a13.4 13.4 0 0 1-4.7 3.5c-1.7.7-2.6.3-2.9-.2s1.5-5.4 1.8-5.9c1.9-3 3.8-4.5 5.1-4.5" style="fill: rgb(255, 255, 255);"></path></svg>