<svg xmlns="http://www.w3.org/2000/svg" viewBox="0 0 219 68"><title>ARD Plus-Logo</title><path d="M100.8 41.7v-21l-21 7.6v5.2l7-2.5v15.7z" style="fill: rgb(255, 255, 255); fill-rule: evenodd;"></path><path d="M92.8 8.5a25.7 25.7 0 0 0-21 10.9l3.7 2.6a21.1 21.1 0 0 1 17.2-9 20.8 20.8 0 0 1 20.7 21 20.8 20.8 0 0 1-20.7 21 21.1 21.1 0 0 1-17.2-9l-3.7 2.6a25.1 25.1 0 0 0 20.7 10.9 25.5 25.5 0 0 0 .3-51" style="fill: rgb(255, 255, 255); fill-rule: evenodd;"></path><path d="M60.5 22.2h-7.7v23.4h6.9c8.1 0 12.3-4.1 12.3-11.9s-4-11.5-11.5-11.5m-.3 19.5h-2.7V26.2h2.7c4.6 0 6.9 2.5 6.9 7.8s-2.2 7.7-6.9 7.7M20.8 22.4H15L7 45.6h4.7l1.6-4.8h8.8l1.5 4.8h5.2Zm-6.3 14.5 2.3-7.1c.3-1 .6-2.1.8-3.1.3.9.6 1.9.9 3.1l2.3 7.1ZM44.7 37.6l-1.1-1.7a6.6 6.6 0 0 0 4.7-6.6c0-4.6-2.9-7.1-8.4-7.1h-8.3v23.4h4.7v-8.9h2.5l5.3 8.9h5.6Zm-8.4-11.4h3.3c2.5 0 3.8 1 3.8 3.3s-1.3 3.3-4 3.3h-3.1Z" style="fill: rgb(255, 255, 255);"></path><path d="M125.9 19.1v29.8h87.3V19.1Zm4.1 5.5 11.6 5.1-11.6 5.4Zm14.7 13.3h-2.1v7.8h-3.8V34.1l3.2.5 3 .2c3.5 0 5.3-2 5.3-4.8s-1.7-4.7-5.5-4.7h-6v-3h6.4c6.1 0 9 3.1 9 7.3s-3.5 8.3-9.5 8.3m24.9 7.7h-11.7V22.3h3.7v20.1h8Zm20.9-8.9c0 6.2-3.3 9.3-9.4 9.3s-8.9-4-8.9-8.3V22.3h3.7v15.1c0 3.1 1.1 5.5 5.4 5.5s5.5-1.6 5.5-6V22.3h3.7Zm9.9 9.3a21.4 21.4 0 0 1-5.4-.7l.5-3.6a13.6 13.6 0 0 0 5.1 1c2.6 0 4.5-1 4.5-3.4 0-4.9-10.3-3.2-10.3-10.7 0-3.9 3.1-6.6 8.4-6.6a31 31 0 0 1 4.3.4l-.4 3.3a14 14 0 0 0-4.1-.6c-2.9 0-4.3 1.2-4.3 3.1 0 4.8 10.4 3.2 10.4 10.7 0 4.1-3.1 7.1-8.7 7.1" style="fill: rgb(255, 255, 255); fill-rule: evenodd;"></path></svg>