<svg xmlns="http://www.w3.org/2000/svg" viewBox="0 0 126 68"><title>phoenix-Logo</title><path d="M8.6 25.6v1.9a8.5 8.5 0 0 1 2.5-1.7 7.2 7.2 0 0 1 2.9-.6 7.6 7.6 0 0 1 5.7 2.5 9.4 9.4 0 0 1 2.2 6.4 9.2 9.2 0 0 1-2.3 6.4 8 8 0 0 1-5.8 2.6 9.2 9.2 0 0 1-2.8-.5 8.5 8.5 0 0 1-2.5-1.7V49H4.3V25.6Zm4.5 3.6a4.4 4.4 0 0 0-3.3 1.4 4.8 4.8 0 0 0-1.3 3.5 5 5 0 0 0 1.3 3.7 4.3 4.3 0 0 0 3.3 1.4 4.4 4.4 0 0 0 3.3-1.4 5 5 0 0 0 1.3-3.7 4.8 4.8 0 0 0-1.3-3.5 4 4 0 0 0-3.3-1.4M24 42.7h4.2v-6.9a19 19 0 0 1 .2-3.4 4.1 4.1 0 0 1 1.3-2.3 3.1 3.1 0 0 1 2.2-.9 3.4 3.4 0 0 1 1.7.5 2.9 2.9 0 0 1 1 1.6 26.6 26.6 0 0 1 .3 3.9v7.5h4.3V31.5a6.2 6.2 0 0 0-1.5-4.5 5.8 5.8 0 0 0-4.3-1.8 7.5 7.5 0 0 0-2.6.5 10.7 10.7 0 0 0-2.5 1.6V19H24Zm25.7-17.5a9.3 9.3 0 0 1 4.6 1.2 8.7 8.7 0 0 1 3.3 3.3 8.8 8.8 0 0 1 1.2 4.4 9.3 9.3 0 0 1-1.2 4.6 8.7 8.7 0 0 1-3.3 3.3 9.3 9.3 0 0 1-4.6 1.2 8.9 8.9 0 0 1-8.8-9 8.2 8.2 0 0 1 3-6.6 8 8 0 0 1 5.8-2.4m.1 4a4.3 4.3 0 0 0-3.2 1.4 4.8 4.8 0 0 0-1.3 3.5 4.9 4.9 0 0 0 1.3 3.6 4.7 4.7 0 0 0 3.2 1.4 4.8 4.8 0 0 0 3.4-1.4 4.9 4.9 0 0 0 1.3-3.6 4.8 4.8 0 0 0-1.3-3.5 4.9 4.9 0 0 0-3.4-1.4m28.4 6.2H64.4a4.3 4.3 0 0 0 1.6 2.9 4.9 4.9 0 0 0 3.3 1.1 5.9 5.9 0 0 0 4.2-1.7l3.6 1.7a7.5 7.5 0 0 1-3.3 2.8 9.8 9.8 0 0 1-4.5.9 9 9 0 0 1-6.6-2.5 8.5 8.5 0 0 1-2.5-6.4 8.7 8.7 0 0 1 8.9-9 8.5 8.5 0 0 1 6.6 2.6 9 9 0 0 1 2.5 6.8zm-4.3-3.3a4 4 0 0 0-1.7-2.3 5.2 5.2 0 0 0-2.9-.9 5.3 5.3 0 0 0-3.2 1 6.9 6.9 0 0 0-1.6 2.2ZM80 42.7h4.3v-6.9a19.4 19.4 0 0 1 .2-3.4 4.4 4.4 0 0 1 1.3-2.4 2.7 2.7 0 0 1 2.2-.8 3.4 3.4 0 0 1 1.7.5 3.4 3.4 0 0 1 1 1.6 27 27 0 0 1 .3 4v7.5h4.3V31.5a6.3 6.3 0 0 0-1.5-4.5 5.8 5.8 0 0 0-4.3-1.8 6.4 6.4 0 0 0-2.4.5 9.5 9.5 0 0 0-2.7 1.7v-1.8H80Zm17.5 0h4.3V25.6h-4.3Zm11.9-8.9-6.5 8.9h4.9l4-5.6 4.1 5.6h5l-6.6-9 5.8-8.1h-4.9l-3.4 4.7-3.3-4.7h-5Z" style="fill: rgb(255, 255, 255);"></path></svg>