<svg xmlns="http://www.w3.org/2000/svg" viewBox="0 0 219 68"><title>tagesschau24-Logo</title><defs><linearGradient id="a" x1="242.93" x2="262.57" y1="-2066.13" y2="-2046.48" gradientTransform="matrix(1 0 0 -1 -66.5 -2018.97)" gradientUnits="userSpaceOnUse"><stop offset="0" stop-color="#fff"></stop><stop offset="1" stop-color="#fff" stop-opacity="0"></stop></linearGradient></defs><path d="M189.6 9.6A24.4 24.4 0 1 0 214 34a24.4 24.4 0 0 0-24.4-24.4m0 4.9A19.5 19.5 0 1 1 170.1 34a19.5 19.5 0 0 1 19.5-19.5" style="fill: url(&quot;#a&quot;);"></path><path d="M154.1 21.4a7.7 7.7 0 1 0 7.7 7.7 7.7 7.7 0 0 0-7.7-7.7m-54.3 1.1v21h3.6v-6.9c0-2.5 1.5-4.6 3.3-4.6s1.8.9 1.8 2.3v9.2h3.7v-10c0-2.5-1.1-4.6-4.3-4.6a5.1 5.1 0 0 0-4.7 2.7 13.7 13.7 0 0 0 .2-2.9v-6.2Zm54.3.1a6.5 6.5 0 0 1 6.5 6.5 6.6 6.6 0 0 1-6.5 6.6 6.7 6.7 0 0 1-6.6-6.6 6.6 6.6 0 0 1 6.6-6.5M10.6 23.9l-2.2.6v4.7H5.3v1.7h3.1v8.6c0 2.9.9 4.2 3.7 4.2a11.8 11.8 0 0 0 2.7-.3v-1.9a6.6 6.6 0 0 1-2.1.3c-1.6 0-2.1-.6-2.1-3.2v-7.7h4.2v-1.7h-4.2Zm146.6.6-7.7 2.8v1.9l2.5-.9v5.8l5.2-1.9Zm24.9.6a16 16 0 0 0-3 .3l-3.1.8v3.9a13.8 13.8 0 0 1 2.8-1.3 6.9 6.9 0 0 1 2.4-.5 3.1 3.1 0 0 1 2.2.8 2.5 2.5 0 0 1 .9 2 4.7 4.7 0 0 1-.4 1.6 6.4 6.4 0 0 1-1.4 1.5l-6.5 5.9v3.4h13.1v-3.4h-8l3.9-3.4a18 18 0 0 0 3.2-3.4 5.5 5.5 0 0 0 .7-2.8 4.9 4.9 0 0 0-1.8-4 7.8 7.8 0 0 0-5-1.4m15.5.4-7.2 10.7v4h7.9v3.3h4.4v-3.3h2.6v-3.4h-2.6V25.5ZM80.8 28.9c-4 0-6.1 2.1-6.1 4.6 0 4.8 5.8 3.4 5.8 5.9 0 .9-.9 1.5-2.3 1.5a14.6 14.6 0 0 1-3.1-.4v3a28 28 0 0 0 3 .3c3.9 0 6.4-1.9 6.4-4.7 0-4.7-5.9-3.6-5.9-6 0-.9.7-1.4 2.1-1.4a11.8 11.8 0 0 1 2.7.3v-2.9Zm40.4 0a16.5 16.5 0 0 0-5.1.9l.4 3a10.5 10.5 0 0 1 4.2-1.1c2 0 2.8.8 2.8 2.3v.8c-4.9 0-8.3 1.8-8.3 5.2s1.5 3.8 4.1 3.8a5 5 0 0 0 4.6-2.8 16.6 16.6 0 0 0-.2 2.4h3.5c0-1.2-.1-2.6-.1-3.7v-6c0-3.1-1.3-4.9-5.9-4.9Zm-98.1 0a11.8 11.8 0 0 0-4.9 1.1l.2 1.9a8.5 8.5 0 0 1 4.3-1.2c2.5 0 3.3 1.2 3.3 3.3v1.2c-5.6 0-8.7 2.1-8.7 5.1s1.6 3.4 3.9 3.4a5.3 5.3 0 0 0 5-3.2 27 27 0 0 0-.1 3h2.1c-.1-1.3 0-2.9 0-4.3v-5.6c0-2.7-1.2-4.7-5.1-4.7m15.6 0c-3.9 0-6.2 2.6-6.2 5.6a4.5 4.5 0 0 0 2.1 4.1 2.6 2.6 0 0 0-1.6 2.3 2.4 2.4 0 0 0 1.5 2.1 4.2 4.2 0 0 0-2.5 3.8c0 2.7 2.3 4.2 6 4.2s7.4-2.3 7.4-5.3-1.7-4-4.8-4h-2.7c-1.8 0-2.6-.4-2.6-1.2a1.3 1.3 0 0 1 1-1.3l2 .2c4.1 0 6.2-2.3 6.2-5.4a3.8 3.8 0 0 0-1.4-3.1h2.6v-1.7h-4.8a8.3 8.3 0 0 0-2.2-.3m15.6 0c-4 0-6.3 3.2-6.3 7.5s2.3 7.3 6.6 7.3a13.2 13.2 0 0 0 4.7-.8l-.2-1.9a8.6 8.6 0 0 1-4.1 1c-3.2 0-4.9-1.8-4.7-6.1h9.5v-1.1c0-3.1-1.6-5.9-5.5-5.9m14.1 0c-3.6 0-5.6 1.8-5.6 4.2 0 5.1 7 3 7 6.4 0 1.5-1.5 2.4-3.5 2.4a15.5 15.5 0 0 1-3.2-.4v1.9a14.5 14.5 0 0 0 3 .3c3.8 0 6-1.9 6-4.5 0-4.8-7-2.9-7-6.3 0-1.4 1.1-2.3 3.2-2.3a9.8 9.8 0 0 1 2.9.5v-1.8a13.5 13.5 0 0 0-2.8-.4m25.5 0c-5.1 0-7.4 3.5-7.4 7.9s2.5 6.9 6.5 6.9a13.9 13.9 0 0 0 3.9-.6l-.3-3.2a6.7 6.7 0 0 1-2.8.6c-2.5 0-3.4-1.6-3.4-4.1s1.1-4.4 3.5-4.4a11 11 0 0 1 2.6.5l.3-3.1a9.3 9.3 0 0 0-2.9-.5m37.2.3v10c0 2.5 1.1 4.6 4.3 4.6a5.1 5.1 0 0 0 4.8-2.9h.1a10.6 10.6 0 0 0-.2 2.5h3.4V29.2h-3.6v6.9c0 2.5-1.5 4.6-3.3 4.6s-1.8-.9-1.8-2.4v-9.1Zm67.2.1v7.5h-5.1ZM54.2 30.6a3.3 3.3 0 0 1 3.4 3.7h-7.2c.3-2.3 1.7-3.7 3.8-3.7m-16.1 0h.5a3.3 3.3 0 0 1 3.7 3.6c0 2.3-1.5 3.6-3.8 3.6s-3.9-1.3-3.9-3.6a3.6 3.6 0 0 1 3.5-3.6M26 36.8v.2c0 2.5-1.7 5-4.2 5a2.1 2.1 0 0 1-2.3-2.1c0-1.4 1.1-3.1 6.5-3.1m97.5.4v.3a3.4 3.4 0 0 1-3.1 3.5 1.6 1.6 0 0 1-1.7-1.6c0-1.1.9-2.2 4.8-2.2m-87.3 6.3a2.7 2.7 0 0 0 .9 0h3c2.1 0 3.2 1 3.2 2.5s-1.8 3.2-5 3.2-4.1-1-4.1-2.8a3.5 3.5 0 0 1 2-2.9" style="fill: rgb(255, 255, 255);"></path></svg>